<?xml version="1.0" encoding="UTF-8"?>
<svg width="39px" height="21px" viewBox="0 0 39 21" version="1.1" xmlns="http://www.w3.org/2000/svg" xmlns:xlink="http://www.w3.org/1999/xlink">
    <!-- Generator: Sketch 60.1 (88133) - https://sketch.com -->
    <title>形状</title>
    <desc>Created with Sketch.</desc>
    <g id="组件" stroke="none" stroke-width="1" fill="none" fill-rule="evenodd">
        <g id="头部导航长条" transform="translate(-22.000000, -22.000000)" fill="#FFFFFF" fill-rule="nonzero">
            <path d="M39.0871694,22.187303 C42.9166562,21.5021004 45.6885084,22.8985433 46.1496193,23.1513718 L46.2174339,23.1897206 C49.039769,24.5784567 50.5055647,27.0665848 50.9938459,28.0431055 L51.053919,28.1577998 C51.1404042,28.3261139 51.186132,28.4299165 51.1944824,28.4491585 C52.0254054,28.1882675 52.804165,28.0642073 53.5011616,28.0231025 C54.4204664,27.9554276 55.1783774,28.0360094 55.7802027,28.1734658 L55.8673883,28.19127 C56.4510656,28.3138355 56.7855044,28.4524134 56.7855044,28.4524134 C60.7326151,30.582551 59.841332,33.3391996 59.841332,33.3391996 L59.8187637,33.3236045 C59.7727919,33.2907439 59.6613539,33.2089974 59.5189,33.1040444 L58.3261508,32.22401 L58.3229677,32.2183952 L58.3134182,32.2114797 L58.2572923,32.1135672 C58.1179068,31.8776728 57.7251567,31.2545519 57.1493241,30.6764866 C56.4516545,30.0040806 55.906954,29.843268 55.906954,29.843268 C55.4923167,29.6295294 55.0715557,29.4971461 54.6565411,29.426026 C52.9082887,29.2312407 51.1183754,30.0344376 50.5096009,30.341926 L50.4450968,30.3805723 C50.3537118,30.4361596 50.3046033,30.469779 50.3046033,30.469779 L50.2955082,30.4551798 L50.2918707,30.4572488 L50.2894308,30.4452966 L50.2894308,30.4452966 C45.5833847,22.8285042 40.8824682,23.8287619 40.8824682,23.8287619 C32.6445935,24.3149345 31.2952865,30.8610051 31.2101214,31.3219477 L31.2056807,31.3468945 L31.0111374,31.3276063 C30.9415168,31.3211376 30.8725939,31.3152054 30.8043617,31.3097995 C26.9842252,31.114975 25.3563564,32.4494476 24.6721492,33.4785331 C24.4274235,33.8703771 24.2820259,34.2541025 24.1959239,34.5716382 L24.1900098,34.6047519 L24.1900098,34.6047519 C24.1403226,34.8497276 24.1018815,35.0855251 24.0738843,35.3124876 C24.0706527,35.3764115 24.0603019,35.4458101 24.049951,35.5069279 L24.0564044,35.4658687 C23.5335959,40.4706257 28.1810551,41.0632873 28.9279945,41.1260827 L29.0284035,41.1329971 L28.9119001,41.2456676 L55.2703232,41.2457691 C56.2217071,41.2457691 57.3863539,41.0358962 57.9143942,40.9297854 L58.1981407,40.8700173 C60.3307122,40.4251788 60.8811355,39.7833194 60.9821277,39.6430606 L61,39.6168403 L60.9833554,39.6989023 C60.4428048,42.1441216 56.2605331,42.8726808 55.5121027,42.9840152 L55.3976494,43 L28.4045054,43 L28.2333822,42.9718621 C22.6366931,42.0081227 22.0126053,37.5810553 22,35.7575323 C22,35.2688537 22.0636631,34.7927053 22.2164545,34.3416173 C24.0117532,28.878441 29.9324192,29.5801333 29.9324192,29.5801333 C30.5053869,26.3097457 32.9347698,24.6632746 34.1574829,23.9099577 L34.5161606,23.6909295 C35.3321022,23.1907177 37.0473774,22.4899894 39.1194735,22.1916397 L39.0871694,22.187303 L39.0871694,22.187303 Z M60.9842737,36.8421692 L60.9886154,36.8623635 C61.0353708,37.1140584 61.2914833,39.6400073 52.8338157,40 L52.8471659,39.9924223 L52.8471659,39.9924223 L52.5830324,40 L52.5830324,40 L28.2570499,40 L28.2570499,39.7473735 L52.5830324,39.7473735 C52.8338157,39.6210603 53.7115573,38.357928 53.7115573,38.357928 C55.7178239,34.6948442 48.8212825,34.8211574 48.8212825,34.8211574 C43.6864939,34.1314872 28.9987165,38.3580164 26.3965084,39.124378 L26,39.2421206 L45.5610993,32.1685795 C46.0869236,31.9956199 46.5952987,31.8455571 47.0867553,31.7167483 C50.0498826,30.8180317 57.4259639,29.4741089 60.9842737,36.8421692 Z" id="形状"></path>
        </g>
    </g>
</svg>